<svg width="208" height="221" viewBox="0 0 208 221" xmlns="http://www.w3.org/2000/svg"><path d="M177.561 187.147a4.69 4.69 0 0 1-4.75 4.58h-39.58a20.72 20.72 0 0 0-18.18 11 9.23 9.23 0 0 1-8 4.55h-3.44a9.79 9.79 0 0 1-8.38-5 20.14 20.14 0 0 0-17.78-10.52h-42.88a4.69 4.69 0 0 1-4.75-4.58v-56.5a4.58 4.58 0 0 1 4.48-4.73h43.12a20.7 20.7 0 0 1 18.18 11 9.22 9.22 0 0 0 8 4.54h3.44a9.76 9.76 0 0 0 8.38-5 20.15 20.15 0 0 1 17.78-10.52h39.79a4.56 4.56 0 0 1 4.6 4.58l-.03 56.6zm5-169a8.34 8.34 0 0 0-7.81 3.03l-22.11 26.93a18.22 18.22 0 0 1-12.7 5.1c-10 0-18.24-7.92-18.24-17.69 0-18.56-14.39-33.44-32.93-34.93a3.14 3.14 0 0 0-3.18 3.15v31.78a17.75 17.75 0 0 1-17.91 17.69 18.58 18.58 0 0 1-12.85-5.1l-22.12-26.93a8.32 8.32 0 0 0-7.8-3.03C10.642 20.104.067 32.387.251 46.787v144.78c0 16 13.25 29 29.58 29h147.8c16.34 0 29.59-13 29.59-29V46.797c.18-14.4-10.393-26.679-24.66-28.64v-.01z" fill="#FFF" fill-rule="nonzero"/></svg>